# xmcd
# 
# Track frame offsets:
#     150
#     18829
#     33546
#     52150
#     69868
#     90286
#     106801
#     123996
#     142373
#     161498
#     180765
#     200633
#     220436
# 
# Disc length: 3184
# 
# Revision: 2
# Processed by: cddbd v1.5.2PL0 Copyright (c) Steve Scherf et al.
# Submitted via: fre:ac v1.0.27
# 
DISCID=b10c6e0d
DTITLE=南台灣小姑娘 - 難分難離
DYEAR=1999
DGENRE=POP
TTITLE0=難分難離
TTITLE1=愛人ABC
TTITLE2=有閒寫信，沒閒打電話
TTITLE3=南台灣小姑娘
TTITLE4=拒絕往來
TTITLE5=同班同學
TTITLE6=感情無塊寄
TTITLE7=青春亂夢
TTITLE8=愛情先天免疫
TTITLE9=癡情
TTITLE10=情人變朋友
TTITLE11=若不是愛著你
TTITLE12=愛作夢的查某囡仔
EXTD=
EXTT0=
EXTT1=
EXTT2=
EXTT3=
EXTT4=
EXTT5=
EXTT6=
EXTT7=
EXTT8=
EXTT9=
EXTT10=
EXTT11=
EXTT12=
PLAYORDER=
